<svg width="70" height="70" viewBox="0 0 70 70" fill="none" xmlns="http://www.w3.org/2000/svg">
<path fill-rule="evenodd" clip-rule="evenodd" d="M49.3788 26.2688H55.4227C57.0916 26.2688 58.4446 27.6217 58.4446 29.2907V35.3345C58.4446 38.6724 55.7387 41.3783 52.4008 41.3783C49.0628 41.3783 46.3569 38.6724 46.3569 35.3345V29.2907C46.3569 27.6217 47.7098 26.2688 49.3788 26.2688Z" fill="white" stroke="black" stroke-linecap="round" stroke-linejoin="round"/>
<path d="M55.5752 40.4801L56.6978 44.9706Z" fill="white"/>
<path d="M55.5752 40.4801L56.6978 44.9706" stroke="black" stroke-linecap="round" stroke-linejoin="round"/>
<path d="M49.2305 40.4801L48.1079 44.9706Z" fill="white"/>
<path d="M49.2305 40.4801L48.1079 44.9706" stroke="black" stroke-linecap="round" stroke-linejoin="round"/>
<path d="M46.3569 44.6382V50.4454Z" fill="white"/>
<path d="M46.3569 44.6382V50.4454" stroke="black" stroke-linecap="round" stroke-linejoin="round"/>
<path d="M46.359 54.9788C47.6107 54.9788 48.6254 53.9641 48.6254 52.7124C48.6254 51.4607 47.6107 50.446 46.359 50.446C45.1073 50.446 44.0925 51.4607 44.0925 52.7124C44.0925 53.9641 45.1073 54.9788 46.359 54.9788Z" fill="white" stroke="black" stroke-linecap="round" stroke-linejoin="round"/>
<path d="M58.4463 44.6382V50.4454Z" fill="white"/>
<path d="M58.4463 44.6382V50.4454" stroke="black" stroke-linecap="round" stroke-linejoin="round"/>
<path d="M58.4446 32.3141H46.3569Z" fill="white"/>
<path d="M58.4446 32.3141H46.3569" stroke="black" stroke-linecap="round" stroke-linejoin="round"/>
<path d="M38.8025 51.9546V49.8632C38.8025 47.7023 40.3278 45.8418 42.4467 45.4182L46.7472 44.5585C47.1025 44.4874 47.4714 44.5602 47.7731 44.761C50.5754 46.63 54.227 46.63 57.0293 44.761C57.3309 44.5602 57.6999 44.4874 58.0552 44.5585L62.3556 45.4182C64.4746 45.8418 65.9999 47.7023 65.9999 49.8632V51.9546" fill="white"/>
<path d="M38.8025 51.9546V49.8632C38.8025 47.7023 40.3278 45.8418 42.4467 45.4182L46.7472 44.5585C47.1025 44.4874 47.4714 44.5602 47.7731 44.761C50.5754 46.63 54.227 46.63 57.0293 44.761C57.3309 44.5602 57.6999 44.4874 58.0552 44.5585L62.3556 45.4182C64.4746 45.8418 65.9999 47.7023 65.9999 49.8632V51.9546" stroke="black" stroke-linecap="round" stroke-linejoin="round"/>
<path fill-rule="evenodd" clip-rule="evenodd" d="M23.1902 15.4384H32.6905C35.3139 15.4384 37.4406 17.565 37.4406 20.1884V29.6886C37.4406 34.9354 33.1873 39.1887 27.9404 39.1887C22.6935 39.1887 18.4402 34.9354 18.4402 29.6886V20.1884C18.4402 17.565 20.5668 15.4384 23.1902 15.4384Z" fill="white" stroke="black" stroke-linecap="round" stroke-linejoin="round"/>
<path d="M32.9299 37.774L34.6946 44.8325Z" fill="white"/>
<path d="M32.9299 37.774L34.6946 44.8325" stroke="black" stroke-linecap="round" stroke-linejoin="round"/>
<path d="M22.9563 37.774L21.1917 44.8325Z" fill="white"/>
<path d="M22.9563 37.774L21.1917 44.8325" stroke="black" stroke-linecap="round" stroke-linejoin="round"/>
<path d="M37.4406 24.941H18.4402Z" fill="white"/>
<path d="M37.4406 24.941H18.4402" stroke="black" stroke-linecap="round" stroke-linejoin="round"/>
<path d="M6.56348 55.8133V52.5258C6.56348 49.1292 8.96104 46.2048 12.2918 45.5389L19.0516 44.1875C19.6101 44.0758 20.19 44.1903 20.6641 44.5058C25.0691 47.4438 30.8089 47.4438 35.2139 44.5058C35.688 44.1903 36.2679 44.0758 36.8264 44.1875L43.5862 45.5389C46.9169 46.2048 49.3145 49.1292 49.3145 52.5258V55.8133" fill="white"/>
<path d="M6.56348 55.8133V52.5258C6.56348 49.1292 8.96104 46.2048 12.2918 45.5389L19.0516 44.1875C19.6101 44.0758 20.19 44.1903 20.6641 44.5058C25.0691 47.4438 30.8089 47.4438 35.2139 44.5058C35.688 44.1903 36.2679 44.0758 36.8264 44.1875L43.5862 45.5389C46.9169 46.2048 49.3145 49.1292 49.3145 52.5258V55.8133" stroke="black" stroke-linecap="round" stroke-linejoin="round"/>
<path d="M18.4402 44.3091V53.4373Z" fill="white"/>
<path d="M18.4402 44.3091V53.4373" stroke="black" stroke-linecap="round" stroke-linejoin="round"/>
<path d="M37.4404 44.3091V53.4373Z" fill="white"/>
<path d="M37.4404 44.3091V53.4373" stroke="black" stroke-linecap="round" stroke-linejoin="round"/>
<path d="M33.3483 60.5629C32.9227 59.8433 32.6953 59.0238 32.6892 58.1879C32.6892 55.5644 34.8158 53.4377 37.4393 53.4377C40.0627 53.4377 42.1894 55.5644 42.1894 58.1879C42.1833 59.0238 41.9559 59.8433 41.5302 60.5629" fill="white"/>
<path d="M33.3483 60.5629C32.9227 59.8433 32.6953 59.0238 32.6892 58.1879C32.6892 55.5644 34.8158 53.4377 37.4393 53.4377C40.0627 53.4377 42.1894 55.5644 42.1894 58.1879C42.1833 59.0238 41.9559 59.8433 41.5302 60.5629" stroke="black" stroke-linecap="round" stroke-linejoin="round"/>
<path d="M18.4415 60.5629C20.4091 60.5629 22.0041 58.9678 22.0041 57.0003C22.0041 55.0328 20.4091 53.4377 18.4415 53.4377C16.4739 53.4377 14.8789 55.0328 14.8789 57.0003C14.8789 58.9678 16.4739 60.5629 18.4415 60.5629Z" fill="white" stroke="black" stroke-linecap="round" stroke-linejoin="round"/>
</svg>
