<svg width="70" height="70" viewBox="0 0 70 70" fill="none" xmlns="http://www.w3.org/2000/svg">
<path d="M35 58C47.7025 58 58 47.7025 58 35C58 22.2975 47.7025 12 35 12C22.2975 12 12 22.2975 12 35C12 47.7025 22.2975 58 35 58Z" stroke="black" stroke-linecap="round" stroke-linejoin="round"/>
<path d="M13.1499 36.15L25.7999 40.75L23.4999 48.8L25.7999 55.7" stroke="black" stroke-linecap="round" stroke-linejoin="round"/>
<path d="M46.5001 54.55L45.3501 48.8L39.6001 46.5V38.45L46.5001 36.15L56.8501 37.3" stroke="black" stroke-linecap="round" stroke-linejoin="round"/>
<path d="M51.1001 20.05L49.9501 23.5L41.9001 24.65V31.55L47.6501 29.25H52.2501L56.8501 31.55" stroke="black" stroke-linecap="round" stroke-linejoin="round"/>
<path d="M13.1499 31.55L18.8999 26.95L24.6499 25.8L29.2499 18.9L26.9499 14.3" stroke="black" stroke-linecap="round" stroke-linejoin="round"/>
</svg>
