<svg width="70" height="70" viewBox="0 0 70 70" fill="none" xmlns="http://www.w3.org/2000/svg">
<path d="M52.5 58.3334L62.9951 47.8383C63.7452 47.0882 64.1667 46.0707 64.1667 45.0099V30.2501C64.1667 28.0409 62.3758 26.2501 60.1667 26.2501H59.4167C57.2075 26.2501 55.4167 28.0409 55.4167 30.2501V43.7501" stroke="black" stroke-linecap="round" stroke-linejoin="round"/>
<path d="M52.4998 46.6667L55.0027 44.1639C55.2677 43.8989 55.4165 43.5396 55.4165 43.1649C55.4165 42.6298 55.1142 42.1406 54.6355 41.9012L52.1618 40.6644C50.6219 39.8944 48.762 40.1962 47.5446 41.4137L43.4631 45.4952C42.7129 46.2453 42.2915 47.2627 42.2915 48.3236V58.3334" stroke="black" stroke-linecap="round" stroke-linejoin="round"/>
<path d="M17.4999 58.3334L7.00482 47.8383C6.25468 47.0882 5.83325 46.0707 5.83325 45.0099V30.2501C5.83325 28.0409 7.62411 26.2501 9.83325 26.2501H10.5833C12.7924 26.2501 14.5833 28.0409 14.5833 30.2501V43.7501" stroke="black" stroke-linecap="round" stroke-linejoin="round"/>
<path d="M17.4999 46.6667L14.997 44.1639C14.7321 43.8989 14.5833 43.5396 14.5833 43.1649C14.5833 42.6298 14.8856 42.1406 15.3642 41.9012L17.8379 40.6644C19.3779 39.8944 21.2378 40.1962 22.4552 41.4137L26.5367 45.4952C27.2868 46.2453 27.7083 47.2627 27.7083 48.3236V58.3334" stroke="black" stroke-linecap="round" stroke-linejoin="round"/>
<path d="M38.861 35.0001H31.1388C30.5865 35.0001 30.1388 34.5524 30.1388 34.0001V29.1945C30.1388 28.6422 29.6911 28.1945 29.1388 28.1945H24.3333C23.781 28.1945 23.3333 27.7468 23.3333 27.1945V19.4723C23.3333 18.92 23.781 18.4723 24.3333 18.4723H29.1388C29.6911 18.4723 30.1388 18.0246 30.1388 17.4723V12.6667C30.1388 12.1145 30.5865 11.6667 31.1388 11.6667H38.861C39.4133 11.6667 39.861 12.1145 39.861 12.6667V17.4723C39.861 18.0246 40.3087 18.4723 40.861 18.4723H45.6666C46.2189 18.4723 46.6666 18.92 46.6666 19.4723V27.1945C46.6666 27.7468 46.2189 28.1945 45.6666 28.1945H40.861C40.3087 28.1945 39.861 28.6422 39.861 29.1945V34.0001C39.861 34.5524 39.4133 35.0001 38.861 35.0001Z" stroke="black" stroke-linecap="round" stroke-linejoin="round"/>
</svg>
