<svg width="70" height="70" viewBox="0 0 70 70" fill="none" xmlns="http://www.w3.org/2000/svg">
<path d="M31.0292 32.3529C36.8769 32.3529 41.6174 27.6124 41.6174 21.7647C41.6174 15.917 36.8769 11.1765 31.0292 11.1765C25.1814 11.1765 20.4409 15.917 20.4409 21.7647C20.4409 27.6124 25.1814 32.3529 31.0292 32.3529Z" stroke="black" stroke-linecap="round" stroke-linejoin="round"/>
<path d="M12.5 53.5294V50.8824C12.5 40.6489 20.7959 32.353 31.0294 32.353C33.8713 32.353 36.5637 32.9927 38.9706 34.1361" stroke="black" stroke-linecap="round" stroke-linejoin="round"/>
<path d="M49.8611 53.5294V50.8824C49.8611 40.6489 41.5652 32.353 31.3317 32.353C28.4898 32.353 25.7973 32.9927 23.3905 34.1361" stroke="black" stroke-linecap="round" stroke-linejoin="round"/>
<path d="M57.5002 46.3287C57.5002 47.9207 56.8715 49.4498 55.7487 50.5808C53.1642 53.1854 50.6575 55.9013 47.9764 58.4114C47.3619 58.9784 46.387 58.9577 45.7989 58.3651L38.0748 50.5808C35.7401 48.228 35.7401 44.4294 38.0748 42.0766C40.4324 39.7006 44.2733 39.7006 46.631 42.0766L46.9117 42.3595L47.1923 42.0767C48.3228 40.9369 49.8623 40.2941 51.4706 40.2941C53.0788 40.2941 54.6182 40.9369 55.7487 42.0766C56.8716 43.2078 57.5002 44.7368 57.5002 46.3287Z" fill="white" stroke="black" stroke-linejoin="round"/>
</svg>
