<svg width="16" height="16" viewBox="0 0 16 16" fill="none" xmlns="http://www.w3.org/2000/svg">
<path d="M7.45564 1.83172C7.6711 1.37003 8.3276 1.37003 8.54306 1.83172L10.2404 5.46891C10.3 5.59663 10.4027 5.69929 10.5304 5.75889L14.1676 7.45625C14.6293 7.67171 14.6293 8.32821 14.1676 8.54367L10.5304 10.241C10.4027 10.3006 10.3 10.4033 10.2404 10.531L8.54306 14.1682C8.3276 14.6299 7.67109 14.6299 7.45564 14.1682L5.75828 10.531C5.69868 10.4033 5.59602 10.3006 5.4683 10.241L1.83111 8.54367C1.36941 8.32821 1.36942 7.67171 1.83111 7.45625L5.4683 5.75889C5.59602 5.69929 5.69868 5.59663 5.75828 5.46891L7.45564 1.83172Z" fill="black"/>
</svg>
